<?xml version="1.0" standalone="no"?><!-- Generator: Gravit.io --><svg xmlns="http://www.w3.org/2000/svg" xmlns:xlink="http://www.w3.org/1999/xlink" style="isolation:isolate" viewBox="0 0 100 50" width="100" height="50"><defs><clipPath id="_clipPath_FoJCRXRwfaSTHy5bkuHJvyBz5lo4XW4c"><rect width="100" height="50"/></clipPath></defs><g clip-path="url(#_clipPath_FoJCRXRwfaSTHy5bkuHJvyBz5lo4XW4c)"><ellipse vector-effect="non-scaling-stroke" cx="34.5" cy="26.68421052631579" rx="30.999999999999996" ry="9.789473684210524" fill="rgb(104,154,255)"/><ellipse vector-effect="non-scaling-stroke" cx="49.999999999999986" cy="17.710526315789473" rx="23.657894736842103" ry="5.710526315789473" fill="rgb(104,154,255)"/><ellipse vector-effect="non-scaling-stroke" cx="57.34210526315789" cy="33.21052631578948" rx="26.10526315789474" ry="9.789473684210522" fill="rgb(104,154,255)"/><ellipse vector-effect="non-scaling-stroke" cx="70.39473684210526" cy="25.46052631578948" rx="26.10526315789474" ry="7.75" fill="rgb(104,154,255)"/><path d=" M 40.065 18.177 C 37.932 22.824 46.369 24.868 43.333 17.025 C 41.881 16.513 40.823 17.642 40.065 18.177 Z " fill="rgb(0,0,0)" vector-effect="non-scaling-stroke" stroke-width="1" stroke="rgb(0,0,0)" stroke-linejoin="miter" stroke-linecap="square" stroke-miterlimit="3"/><path d=" M 54.498 19.517 C 51.844 20.311 54.099 28.183 58.87 23.547 C 59.488 21.8 57.89 18.142 54.498 19.517 Z " fill="rgb(0,0,0)" vector-effect="non-scaling-stroke" stroke-width="1" stroke="rgb(0,0,0)" stroke-linejoin="miter" stroke-linecap="square" stroke-miterlimit="3"/><polygon points="39.337,21.498,48.663,22.186,47.861,25.344" fill="rgb(255,166,0)"/><g><g><rect x="60.483" y="37.85" width="20" height="1.487" transform="matrix(-0.919,-0.394,0.394,-0.919,120.03,101.857)" fill="rgb(111,72,0)"/><rect x="68.54" y="31.282" width="20" height="1.487" transform="matrix(0.055,0.998,-0.998,0.055,106.178,-48.163)" fill="rgb(111,72,0)"/></g></g><g><rect x="12.554" y="28.205" width="13.669" height="1.487" transform="matrix(-0.903,0.429,-0.429,-0.903,49.323,46.776)" fill="rgb(111,72,0)"/><rect x="13.267" y="34.292" width="20" height="1.487" transform="matrix(0.95,0.312,-0.312,0.95,12.09,-5.51)" fill="rgb(111,72,0)"/></g></g></svg>