<?xml version="1.0" standalone="no"?><!-- Generator: Gravit.io --><svg xmlns="http://www.w3.org/2000/svg" xmlns:xlink="http://www.w3.org/1999/xlink" style="isolation:isolate" viewBox="0 0 100 32" width="100" height="32"><defs><clipPath id="_clipPath_NL2Ug5ZjqyMp8r8OoP37So1fVKv3hHZR"><rect width="100" height="32"/></clipPath></defs><g clip-path="url(#_clipPath_NL2Ug5ZjqyMp8r8OoP37So1fVKv3hHZR)"><ellipse vector-effect="non-scaling-stroke" cx="34.5" cy="15.07403023266184" rx="31" ry="9.789473684210524" fill="rgb(104,154,255)"/><ellipse vector-effect="non-scaling-stroke" cx="49.99999999999997" cy="6.100346022135498" rx="23.657894736842103" ry="5.710526315789472" fill="rgb(104,154,255)"/><ellipse vector-effect="non-scaling-stroke" cx="57.342105263157876" cy="21.600346022135465" rx="26.105263157894733" ry="9.789473684210524" fill="rgb(104,154,255)"/><ellipse vector-effect="non-scaling-stroke" cx="70.39473684210526" cy="13.850346022135522" rx="26.10526315789474" ry="7.75" fill="rgb(104,154,255)"/><path d=" M 40.065 6.566 C 37.932 11.214 46.369 13.258 43.333 5.414 C 41.881 4.903 40.823 6.031 40.065 6.566 Z " fill="rgb(0,0,0)" vector-effect="non-scaling-stroke" stroke-width="1" stroke="rgb(0,0,0)" stroke-linejoin="miter" stroke-linecap="square" stroke-miterlimit="3"/><path d=" M 54.498 7.906 C 51.844 8.701 54.099 16.573 58.87 11.937 C 59.488 10.19 57.89 6.532 54.498 7.906 Z " fill="rgb(0,0,0)" vector-effect="non-scaling-stroke" stroke-width="1" stroke="rgb(0,0,0)" stroke-linejoin="miter" stroke-linecap="square" stroke-miterlimit="3"/><polygon points="39.337,9.888,48.663,10.576,47.861,13.734" fill="rgb(255,166,0)"/><g><g><rect x="60.483" y="26.24" width="20" height="1.487" transform="matrix(-0.919,-0.394,0.394,-0.919,124.609,79.578)" fill="rgb(111,72,0)"/><rect x="68.54" y="19.672" width="20" height="1.487" transform="matrix(0.055,0.998,-0.998,0.055,94.586,-59.132)" fill="rgb(111,72,0)"/></g></g><g><rect x="12.554" y="16.594" width="13.669" height="1.487" transform="matrix(-0.903,0.429,-0.429,-0.903,44.341,24.679)" fill="rgb(111,72,0)"/><rect x="13.267" y="22.682" width="20" height="1.487" transform="matrix(0.95,0.312,-0.312,0.95,8.468,-6.089)" fill="rgb(111,72,0)"/></g></g></svg>