<?xml version="1.0" standalone="no"?><!-- Generator: Gravit.io --><svg xmlns="http://www.w3.org/2000/svg" xmlns:xlink="http://www.w3.org/1999/xlink" style="isolation:isolate" viewBox="0 0 76 130" width="76" height="130"><defs><clipPath id="_clipPath_xJmsfv9PABCYzUvcxY3dIqymbwSqton2"><rect width="76" height="130"/></clipPath></defs><g clip-path="url(#_clipPath_xJmsfv9PABCYzUvcxY3dIqymbwSqton2)"><rect x="5.673" y="55.344" width="13.669" height="1.487" transform="matrix(-0.903,0.429,-0.429,-0.903,47.872,101.381)" fill="rgb(111,72,0)"/><circle vector-effect="non-scaling-stroke" cx="38" cy="97.5" r="29.5" fill="rgb(255,255,255)"/><circle vector-effect="non-scaling-stroke" cx="38" cy="61" r="22" fill="rgb(255,255,255)"/><circle vector-effect="non-scaling-stroke" cx="38" cy="29.5" r="15.500000000000002" fill="rgb(255,255,255)"/><polygon points="29.246,34.092,36.34,28,38,30.804" fill="rgb(255,166,0)"/><path d=" M 28.858 23.282 C 26.725 27.929 35.162 29.973 32.127 22.13 C 30.675 21.618 29.617 22.747 28.858 23.282 Z " fill="rgb(0,0,0)" vector-effect="non-scaling-stroke" stroke-width="1" stroke="rgb(0,0,0)" stroke-linejoin="miter" stroke-linecap="square" stroke-miterlimit="3"/><path d=" M 40.498 22.107 C 37.844 22.902 40.099 30.774 44.87 26.138 C 45.487 24.391 43.89 20.733 40.498 22.107 Z " fill="rgb(0,0,0)" vector-effect="non-scaling-stroke" stroke-width="1" stroke="rgb(0,0,0)" stroke-linejoin="miter" stroke-linecap="square" stroke-miterlimit="3"/><path d=" M 35.487 45.34 C 35.024 46.158 34.177 46.102 35.252 47.513 C 35.783 47.927 37.803 49.135 37.906 48.782 C 38.223 47.697 38.045 46.445 37.494 45.506 C 36.777 44.28 36.016 45.716 35.487 45.34 Z " fill="rgb(0,0,0)" vector-effect="non-scaling-stroke" stroke-width="1" stroke="rgb(0,0,0)" stroke-linejoin="miter" stroke-linecap="square" stroke-miterlimit="3"/><path d=" M 35.111 69.814 C 35.628 71.095 35.441 72.288 36.653 71.767 C 37.045 71.302 38.271 69.254 38.032 68.841 C 37.296 67.574 36.355 66.906 35.576 67.011 C 34.561 67.147 35.475 69.322 35.111 69.814 Z " fill="rgb(0,0,0)" vector-effect="non-scaling-stroke" stroke-width="1" stroke="rgb(0,0,0)" stroke-linejoin="miter" stroke-linecap="square" stroke-miterlimit="3"/><path d=" M 33.577 56.16 C 32.096 55.628 31.634 58.151 31.649 59.008 C 31.452 60.877 32.228 61.493 34.11 60.591 C 35.451 59.948 35.963 57.731 35.402 56.987 C 34.839 56.239 33.902 56.481 33.577 56.16 Z " fill="rgb(0,0,0)" vector-effect="non-scaling-stroke" stroke-width="1" stroke="rgb(0,0,0)" stroke-linejoin="miter" stroke-linecap="square" stroke-miterlimit="3"/><rect x="52.852" y="51.142" width="20" height="1.487" transform="matrix(-0.903,0.429,-0.429,-0.903,141.886,71.782)" fill="rgb(111,72,0)"/><rect x="53.246" y="40.755" width="20" height="1.487" transform="matrix(0.786,0.618,-0.618,0.786,39.2,-30.223)" fill="rgb(111,72,0)"/><rect x="6.386" y="61.431" width="20" height="1.487" transform="matrix(0.95,0.312,-0.312,0.95,20.212,-2.009)" fill="rgb(111,72,0)"/></g></svg>